<?xml version="1.0" encoding="utf-8"?>
<!-- Generator: Adobe Illustrator 23.0.3, SVG Export Plug-In . SVG Version: 6.00 Build 0)  -->
<svg version="1.1" id="Layer_1" xmlns="http://www.w3.org/2000/svg" xmlns:xlink="http://www.w3.org/1999/xlink" x="0px" y="0px"
	 viewBox="0 0 32 32" style="enable-background:new 0 0 32 32;" xml:space="preserve">
<style type="text/css">
	.st0{fill:#084B8D;}
</style>
<title>gap-cover</title>
<path class="st0" d="M15.5,0h-0.9l5.1,5.1l1.8-1.8c4.4,2,7.5,6.3,8,11.3h2C30.8,6.5,23.9,0,15.5,0L15.5,0z"/>
<path class="st0" d="M10,28.6c-4.4-2-7.5-6.3-8-11.3H0C0.6,25.5,7.6,32,16,32h0.9l-5.1-5.1L10,28.6L10,28.6z"/>
<path class="st0" d="M17,11.9H15V15h-3.1V17H15v3.1H17V17h3.1V15H17V11.9z"/>
<path class="st0" d="M21.4,8.3H10.6c-1.2,0-2.2,1-2.2,2.2v10.9c0,1.2,1,2.2,2.2,2.2h10.9c1.2,0,2.2-1,2.2-2.2V10.6
	C23.7,9.4,22.6,8.3,21.4,8.3z M22.4,21.4c0,0.5-0.4,1-1,1H10.6c-0.5,0-1-0.4-1-1V10.6c0-0.5,0.4-1,1-1h10.9c0.5,0,1,0.4,1,1V21.4z"
	/>
</svg>
