<?xml version="1.0" encoding="utf-8"?>
<!-- Generator: Adobe Illustrator 23.0.3, SVG Export Plug-In . SVG Version: 6.00 Build 0)  -->
<svg version="1.1" id="Layer_1" xmlns="http://www.w3.org/2000/svg" xmlns:xlink="http://www.w3.org/1999/xlink" x="0px" y="0px"
	 viewBox="0 0 32 32" style="enable-background:new 0 0 32 32;" xml:space="preserve">
<style type="text/css">
	.st0{fill:#084B8D;}
</style>
<title>group-risk</title>
<path class="st0" d="M29.8,16.4c-0.6-0.6-1.4-1.1-2.1-1.4c1.1-0.7,1.7-1.9,1.7-3.3c0-2.2-1.7-4-4-4s-3.9,1.7-3.9,3.9
	c0,1.4,0.7,2.6,1.7,3.3c-0.7,0.3-1.4,0.7-1.9,1.3c-0.9-0.8-1.9-1.4-3.1-1.7c1.8-1,3-2.8,3-5c0.1-3-2.4-5.5-5.5-5.5s-5.6,2.5-5.6,5.6
	c0,2.1,1.3,4.1,3,5c-1.2,0.4-2.1,1-3.1,1.7c-0.6-0.6-1.3-1-1.9-1.3c1.1-0.7,1.8-1.9,1.8-3.3c0-2.2-1.7-4-4-4S2,9.5,2,11.6
	c0,1.4,0.7,2.6,1.8,3.3C1.6,15.8,0,18,0,20.6v2.1L0.5,23c1.4,0.9,3.4,1.3,5.5,1.3l0,0c0.4,0,0.7,0,1-0.1v1.6l0.5,0.5
	c1.9,1.3,4.9,2,8.2,2s6.3-0.8,8.2-2l0.5-0.3v-1.6c0.4,0,0.7,0,1.1,0c2.1,0,4.2-0.5,5.5-1.3l0.5-0.3v-2.1
	C31.5,19,30.9,17.6,29.8,16.4L29.8,16.4z M25.5,9.6c1.1,0,2,0.9,2,2s-0.9,2-2,2s-2-0.9-2-2S24.4,9.6,25.5,9.6z M12.1,9.5
	c0-2,1.6-3.7,3.7-3.7c1.9,0,3.6,1.6,3.6,3.7s-1.6,3.7-3.7,3.7S12.1,11.5,12.1,9.5z M6,9.6c1.1,0,2,0.9,2,2s-0.9,2-2,2s-2-0.9-2-2
	S4.8,9.6,6,9.6z M29.6,21.6c-1.1,0.5-2.5,0.8-4.1,0.8c-0.7,0-1.3,0-1.8-0.1l-1.2-0.2v2.7c-1.6,0.9-4.2,1.5-6.8,1.5s-5.1-0.5-6.8-1.5
	v-2.7l-1.1,0.2c-0.6,0.1-1.3,0.1-1.8,0.2c-1.6,0-3-0.3-4.1-0.8v-1.1c0-2.2,1.8-4.1,4.1-4.1c1.4,0,2.5,0.6,3.3,1.6l0.7,1l0.8-0.9
	c1.3-1.5,3.1-2.2,4.9-2.2s3.7,0.8,4.9,2.2l0.8,0.9l0.7-1c0.8-1.1,2-1.6,3.3-1.6c1.1,0,2.1,0.4,2.9,1.3c0.8,0.8,1.2,1.8,1.2,2.9
	L29.6,21.6L29.6,21.6z"/>
</svg>
