<?xml version="1.0" encoding="utf-8"?>
<!-- Generator: Adobe Illustrator 23.0.3, SVG Export Plug-In . SVG Version: 6.00 Build 0)  -->
<svg version="1.1" id="Layer_1" xmlns="http://www.w3.org/2000/svg" xmlns:xlink="http://www.w3.org/1999/xlink" x="0px" y="0px"
	 viewBox="0 0 33 32" style="enable-background:new 0 0 33 32;" xml:space="preserve">
<style type="text/css">
	.st0{fill:#084B8D;}
</style>
<title>medical-aid</title>
<path class="st0" d="M7.3,7.3L7.3,7.3L7.3,7.3z"/>
<path class="st0" d="M29.6,7h-6.5V3.7c0-1.8-1.5-3.3-3.3-3.3h-6.5c-1.8,0-3.3,1.5-3.3,3.3V7H3.4c-1.8,0-3.3,1.5-3.3,3.3v18
	c0,1.8,1.5,3.3,3.3,3.3h26.2c1.8,0,3.3-1.5,3.3-3.3v-18C32.9,8.4,31.5,7,29.6,7z M13.3,3.7h6.5V7h-6.5C13.3,7,13.3,3.7,13.3,3.7z
	 M14.1,27.2l-2-2l6.4-6.4l-6.4-6.4l2-2l8.3,8.3L14.1,27.2z"/>
</svg>
