<?xml version="1.0" encoding="utf-8"?>
<!-- Generator: Adobe Illustrator 23.0.3, SVG Export Plug-In . SVG Version: 6.00 Build 0)  -->
<svg version="1.1" id="Layer_1" xmlns="http://www.w3.org/2000/svg" xmlns:xlink="http://www.w3.org/1999/xlink" x="0px" y="0px"
	 viewBox="0 0 32 32" style="enable-background:new 0 0 32 32;" xml:space="preserve">
<style type="text/css">
	.st0{fill:#084B8D;}
</style>
<title>group-risk</title>
<title>retirement-fund</title>
<path class="st0" d="M12.9,5.9c-0.4,0-0.7-0.4-0.7-0.8v-2c0-0.4,0.3-0.7,0.7-0.7s0.7,0.3,0.7,0.7v2C13.6,5.5,13.3,5.9,12.9,5.9z"/>
<path class="st0" d="M9.7,5.9C9.3,5.9,9,5.5,9,5.1v-2c0-0.4,0.3-0.7,0.7-0.7c0.4,0,0.7,0.3,0.7,0.7v2C10.4,5.5,10.1,5.9,9.7,5.9z"/>
<path class="st0" d="M16.1,5.9c-0.4,0-0.7-0.3-0.7-0.7V3.1c0-0.4,0.3-0.7,0.7-0.7c0.4,0,0.7,0.3,0.7,0.7v2
	C16.8,5.5,16.5,5.9,16.1,5.9z"/>
<path class="st0" d="M19.4,5.9c-0.4,0-0.8-0.4-0.8-0.8v-2c0-0.4,0.3-0.7,0.7-0.7c0.4,0,0.7,0.3,0.7,0.7v2
	C20.1,5.5,19.7,5.9,19.4,5.9z"/>
<path class="st0" d="M22.2,5.9c-0.4,0-0.7-0.4-0.7-0.8v-2c0-0.4,0.3-0.7,0.7-0.7s0.7,0.3,0.7,0.7v2C22.9,5.5,22.6,5.9,22.2,5.9z"/>
<path class="st0" d="M17.6,19.1v-4.7c1.3,0.3,2.2,1.2,2.2,2.2c0,0.4,0.4,0.8,0.8,0.8s0.8-0.4,0.8-0.8c0-1.9-1.6-3.5-3.8-3.9v-0.4
	c0-0.4-0.4-0.8-0.8-0.8c-0.4,0-0.8,0.4-0.8,0.8v0.4c-2.2,0.3-4,1.9-4,3.9s1.7,3.6,4,3.9v4.7c-1.3-0.3-2.2-1.3-2.2-2.3
	c0-0.4-0.4-0.8-0.8-0.8s-0.8,0.4-0.8,0.8c0,1.9,1.6,3.5,3.8,3.9v0.4c0,0.4,0.4,0.8,0.8,0.8c0.4,0,0.8-0.4,0.8-0.8v-0.4
	c2.2-0.3,4-1.9,4-3.9C21.5,20.9,19.8,19.3,17.6,19.1z M16,18.9c-1.4-0.3-2.4-1.2-2.4-2.3c0-1.2,1.1-2,2.4-2.3V18.9L16,18.9z
	 M17.6,25.2v-4.6c1.4,0.3,2.4,1.2,2.4,2.3C20,24,18.9,24.9,17.6,25.2L17.6,25.2z"/>
<path class="st0" d="M22.4,8.2H9.5c-2.2,0-4.1-1.8-4.1-4.1S7.3,0,9.5,0h12.9c2.2,0,4.1,1.8,4.1,4.1S24.6,8.2,22.4,8.2z M9.5,1.8
	c-1.4,0-2.4,1.1-2.4,2.4s1.1,2.3,2.4,2.3h12.9c1.4,0,2.3-1.1,2.3-2.3c0-1.4-1.1-2.4-2.3-2.4C22.4,1.8,9.5,1.8,9.5,1.8z"/>
<path class="st0" d="M20.8,6.8h-9.8c-3.9,0-7,3.1-7,7V25c0,3.9,3.1,7,7,7h9.9c3.9,0,7-3.1,7-7V13.8C27.8,9.9,24.7,6.8,20.8,6.8z
	 M26.2,25c0,2.9-2.3,5.2-5.2,5.2h-9.9c-2.9,0-5.2-2.3-5.2-5.2V13.8c0-2.9,2.3-5.2,5.2-5.2h9.9c2.9,0,5.2,2.3,5.2,5.2V25z"/>
</svg>
