<?xml version="1.0" encoding="utf-8"?>
<!-- Generator: Adobe Illustrator 23.0.3, SVG Export Plug-In . SVG Version: 6.00 Build 0)  -->
<svg version="1.1" id="Layer_1" xmlns="http://www.w3.org/2000/svg" xmlns:xlink="http://www.w3.org/1999/xlink" x="0px" y="0px"
	 viewBox="0 0 32 32" style="enable-background:new 0 0 32 32;" xml:space="preserve">
<style type="text/css">
	.st0{fill:#084B8D;}
</style>
<title>search icon</title>
<path class="st0" d="M12.5,19.6c3.9,0,7.1-3.2,7.1-7.1s-3.2-7.1-7.1-7.1s-7.1,3.2-7.1,7.1S8.6,19.6,12.5,19.6z M22,19.6l7.8,7.8
	l-2.4,2.4L19.6,22v-1.3l-0.4-0.4c-1.8,1.6-4.1,2.4-6.7,2.4c-5.7,0-10.3-4.5-10.3-10.2S6.8,2.2,12.5,2.2s10.2,4.6,10.2,10.3
	c0,2.5-0.9,4.9-2.4,6.7l0.4,0.4L22,19.6L22,19.6z"/>
</svg>
