<?xml version="1.0" encoding="utf-8"?>
<!-- Generator: Adobe Illustrator 23.0.3, SVG Export Plug-In . SVG Version: 6.00 Build 0)  -->
<svg version="1.1" id="Layer_1" xmlns="http://www.w3.org/2000/svg" xmlns:xlink="http://www.w3.org/1999/xlink" x="0px" y="0px"
	 viewBox="0 0 28 32" style="enable-background:new 0 0 28 32;" xml:space="preserve">
<style type="text/css">
	.st0{fill:#084B8D;}
</style>
<title>twitter</title>
<g>
	<g>
		<path class="st0" d="M28,7.3c-1,0.5-2.1,0.8-3.3,0.9c1.2-0.7,2.1-1.8,2.5-3.2c-1.1,0.7-2.3,1.1-3.6,1.4c-1-1.1-2.5-1.8-4.2-1.8
			c-3.2,0-5.7,2.6-5.7,5.7c0,0.4,0.1,0.9,0.1,1.3C9,11.4,4.8,9.1,2,5.6c-0.5,0.9-0.8,1.9-0.8,3c0,2,1,3.7,2.5,4.8
			c-0.9,0-1.8-0.3-2.6-0.7v0.1c0,2.8,2,5.1,4.6,5.6c-0.5,0.1-1,0.2-1.5,0.2c-0.4,0-0.7,0-1.1-0.1c0.7,2.3,2.8,3.9,5.4,4
			c-2,1.5-4.4,2.4-7.1,2.4c-0.5,0-0.9,0-1.4-0.1c2.5,1.6,5.5,2.6,8.8,2.6c10.5,0,16.3-8.7,16.3-16.3v-0.7C26.3,9.5,27.2,8.5,28,7.3z
			"/>
	</g>
</g>
</svg>
