<?xml version="1.0" encoding="utf-8"?>
<!-- Generator: Adobe Illustrator 23.0.3, SVG Export Plug-In . SVG Version: 6.00 Build 0)  -->
<svg version="1.1" id="Layer_1" xmlns="http://www.w3.org/2000/svg" xmlns:xlink="http://www.w3.org/1999/xlink" x="0px" y="0px"
	 viewBox="0 0 28 32" style="enable-background:new 0 0 28 32;" xml:space="preserve">
<style type="text/css">
	.st0{fill:#EA5933;}
</style>
<title>vitality</title>
<path class="st0" d="M28.3,27.9L28.3,27.9c-0.2-0.4-0.5-0.5-1-0.5c-0.2,0-0.3,0-0.9,0.2c-0.2,0-0.3,0.1-0.4,0.1
	c-0.5,0.1-0.9,0.2-1.3,0.2s-0.5-0.1-0.5-0.1c-0.6-1.5-1.7-4.3-1.7-4.8c-0.1-1.1-0.5-2.3-1-3c-1.2-1.6-2.4-3.1-2.8-3.7
	c-0.3-0.4-0.4-0.5-0.5-0.6c0.1-0.3,0.2-0.4,0.2-0.5c0.1-0.3,0.2-0.7,0.3-0.9s0.2-0.5,0.3-1.2c0-0.1,0.1-0.5,0.1-0.6
	c0-0.3,0.2-0.6,0.3-1c0.4,0.6,0.9,1,1.5,1.2c0.6,0.1,1.6-0.2,2.4-0.6c0.6-0.4,1.3-0.6,1.6-0.7c0.5,0,0.7-0.2,1-0.5
	c0.1-0.1,0.2-0.3,0.3-0.3c0.4-0.5,0.4-0.8,0.1-1.3c0-0.1-0.1-0.1-0.1-0.1C25.8,9,25.8,9,25.8,8.9c0-0.3-0.2-0.4-0.4-0.5
	c-0.1-0.1-0.1-0.2-0.2-0.2S25,8,25,8C24.9,8,24.9,8,24.9,8c-0.5-0.5-1.3,0.1-1.6,0.9c0,0-0.2,0.4-0.2,0.5c-0.4,0.1-1.4,0.3-1.7,0.4
	c-0.2-0.4-0.4-0.8-0.7-1.5c-0.1-0.1-0.3-0.4-0.3-0.5C20.1,7.6,20,7.3,20,7c0-0.6-0.5-1.1-1.1-1.6c0-0.1,0-0.1,0-0.2H19
	c0.3,0,0.5,0,0.7-0.2s0.4-0.5,0.4-0.8c-0.1,0.1,0-0.1,0-0.2s0.1-0.2,0.1-0.2s0.1,0,0.1-0.1c0.3-0.4,0.3-0.7,0-1l-0.1-0.1v0.1V2.7
	c0.1-0.2,0.1-0.5,0-0.7c0-0.1-0.1-0.2-0.1-0.3C20,1.5,20,1.4,19.9,1.2c-0.2-0.5-0.5-0.8-0.9-0.9C18.2,0,17.2,0,16.6,0.4
	c-0.6,0.5-1,1-1.1,1.8c0,0.5,0,0.9,0.3,1.3c0,0,0,0.1,0.1,0.1c0,0.1,0,0.1,0.1,0.2c0.1,0.3,0.2,0.5,0.1,0.7c0,0.1-0.2,0.4-0.4,0.6
	c-0.1,0-0.2,0.1-0.3,0.1s-0.1,0-0.1,0c-0.3,0-0.6,0.2-1.1,0.4c-0.1,0.1-0.2,0.1-0.4,0.2c-0.5,0.1-1.1,0.4-1.1,0.4
	c-0.1,0-1.2,0.5-1.3,0.6c0,0,0,0-0.1,0c-0.4,0.2-0.6,0.4-0.9,0.5C9.7,7.6,9,8.1,8.9,8.8C8.7,9.3,9,10.4,9.5,11.2
	c0.4,0.6,0.6,1.3,0.7,1.6c0,0.5,0.2,0.7,0.5,1c0.1,0.1,0.3,0.2,0.3,0.3c0.5,0.4,0.8,0.4,1.3,0.1c0.1,0,0.1-0.1,0.1-0.1
	c0.1-0.1,0.1-0.1,0.2-0.1c0.3,0,0.4-0.2,0.5-0.4c0.1-0.1,0.1-0.1,0.2-0.2c0,0,0.2-0.2,0.2-0.3l0,0l0,0l0,0l0,0c0-0.1,0,0,0,0
	l0.1-0.1c0.5-0.5-0.1-1.3-0.8-1.6c0,0-0.4-0.2-0.5-0.2c0-0.4-0.2-1.4-0.3-1.6c0.4-0.1,0.8-0.4,1.5-0.6c0,0.3,0,0.5,0.1,0.7
	c0.3,1.5,0.5,3.2,0.5,3.5c0,0.1-0.2,0.3-0.5,0.6c-0.4,0.5-0.5,0.6-0.6,0.8c-0.4,0.6-0.4,1.2-0.2,1.8c0.1,0.2,0.2,0.4,0.4,0.5
	c-0.2,0.4-0.5,1-0.6,1.4c-0.4,0.7-0.6,1.3-0.7,1.5s-0.1,0.3-0.2,0.4c-0.7-0.3-2.1-0.7-2.7-0.8c-0.8-0.1-1.5-0.2-2.3-0.1
	c-0.4,0-0.9-0.1-1.1-0.1c0-0.1,0-0.2-0.1-0.5C5,18,4.9,17.7,4.6,17.6c-0.6-0.4-1.8,0.2-2.2,1.1c-0.1,0.3-0.4,0.5-0.8,0.8
	c-0.1,0-0.3,0.2-0.4,0.3c-0.1,0-0.1,0-0.1,0.1c-0.6,0.5-1.2,1.5-1.1,2.1c0.1,0.5,0.5,0.8,0.9,0.7c0.3,0,0.5-0.1,0.8-0.3
	c0.1-0.2,0.7-0.5,1-0.6c0.1-0.1,0.2-0.1,0.3-0.2c0.5-0.2,0.9-0.4,0.9-0.4c0.2,0.1,2.1,0.8,2.4,1c0.2,0.1,0.5,0.2,0.6,0.3
	c0.3,0.1,0.5,0.3,0.8,0.4c1.4,0.7,4.1,1.3,4.8,1c0.5-0.2,2-2.1,2.5-3c0.1-0.2,0.3-0.5,0.6-0.9c0.2,0.1,0.3,0.3,0.5,0.4
	c0,0,0,0,0.1,0.1c1.4,1,1.9,1.5,1.9,1.6c0.2,0.5,0.5,1.5,0.8,2.3c0.5,1.3,1,2.2,1.5,2.8c0.1,0.1,0.2,0.3,0.4,0.4
	c0.1,0.1,0.3,0.4,0.4,0.5c0.3,0.3,0.4,0.5,0.5,0.6c0.1,0.2,0.2,0.4,0.3,0.5c0,0.1,0.1,0.8,0.2,1.1c0.2,1.1,0.5,1.7,1.2,1.8
	c0.8,0.2,1.7-0.5,2.4-1.1c0.1-0.1,0.3-0.2,0.6-0.5c0.1,0,0.1,0,0.2-0.1s0.3-0.2,0.5-0.3s0.3-0.2,0.4-0.2
	C28,29.4,28.5,28.6,28.3,27.9L28.3,27.9z M25.8,8.9L25.8,8.9C25.7,8.9,25.7,8.9,25.8,8.9C25.7,8.9,25.7,8.9,25.8,8.9z M19.6,3
	L19.6,3L19.6,3L19.6,3z M26.7,29c-0.1,0-0.2,0.1-0.4,0.2c-0.3,0.1-0.4,0.2-0.5,0.3c-0.1,0-0.1,0-0.2,0.1c-0.5,0.3-0.7,0.5-0.9,0.6
	c-0.4,0.5-1.1,0.9-1.4,0.8c0,0-0.2-0.4-0.4-1c0-0.3-0.2-1-0.2-1.1c-0.1-0.3-0.2-0.5-0.4-0.8s-0.4-0.5-0.6-0.7
	c-0.1-0.1-0.3-0.4-0.4-0.5c-0.1-0.2-0.2-0.3-0.3-0.4c-0.4-0.5-0.8-1.5-1.4-2.7c-0.4-0.8-0.6-1.6-0.8-2.2c-0.2-0.5-0.5-0.7-2.4-2.1
	c0,0,0,0-0.1-0.1c-0.5-0.3-0.6-0.5-0.9-0.6l-0.5-0.4l-0.4,0.5c-0.1,0.1-0.1,0.1-0.4,0.5c-0.4,0.5-0.5,0.7-0.6,1
	c-0.1,0.6-1.5,2.5-1.6,2.5c-0.3,0.1-2.7-0.5-3.8-1c-0.3-0.1-0.5-0.3-0.8-0.4c-0.2-0.1-0.4-0.2-0.6-0.3c-0.4-0.2-2.2-0.8-2.3-0.9
	c-0.4-0.2-0.9-0.1-1.8,0.4c-0.1,0.1-0.2,0.1-0.3,0.2c-0.3,0.1-1,0.5-1,0.5s-0.1,0-0.1,0.1c0.1-0.3,0.4-0.6,0.6-0.8
	c0.1,0,0.1,0,0.1-0.1c0.1,0,0.3-0.2,0.4-0.3c0.5-0.4,0.9-0.7,1.1-1.3c0.2-0.4,0.6-0.6,0.7-0.6c0,0,0,0.2,0.1,0.5
	c0,0.1,0.1,0.5,0.1,0.5c0.1,0.4,0.1,0.4,0.3,0.5c0.3,0.3,1.2,0.5,1.9,0.5c0.8,0,1.4,0,2,0.1c0.5,0.1,2.2,0.6,2.7,0.8
	c0.5,0.2,0.7,0,0.9-0.4c0.1-0.2,0.1-0.2,0.3-0.6c0.1-0.2,0.3-0.7,0.7-1.5c0.2-0.3,0.6-1.4,0.7-1.5c0.2-0.4,0.1-0.6-0.2-0.8
	c-0.1-0.1-0.2-0.2-0.2-0.2c-0.1-0.1-0.1-0.1-0.1-0.1c-0.1-0.4-0.1-0.6,0.1-1c0.1-0.1,0.2-0.3,0.5-0.6c0.4-0.5,0.5-0.6,0.6-0.9
	c0.2-0.5-0.1-2.4-0.5-4c-0.1-0.4-0.1-0.7,0-1.3l0.2-0.9l-0.8,0.3c-0.2,0.1-0.3,0.1-0.5,0.2c0,0-0.3,0.2-0.4,0.2
	c-0.7,0.3-1.5,0.6-1.6,0.6c-0.4,0.1-0.5,0.4-0.5,0.6c0,0.2,0,0.3,0.1,0.5s0.3,1.2,0.3,1.5c0,0.4,0.3,0.5,0.6,0.7
	c0.1,0.1,0.5,0.3,0.5,0.3c0.1,0.1,0.3,0.2,0.4,0.3l0,0l0,0l0,0c0,0-0.1,0.1-0.1,0.2c-0.1,0.1-0.2,0.1-0.3,0.3c0.1,0,0.2,0,0.3,0
	c-0.2,0-0.3,0.1-0.3,0.2c0-0.1,0.1-0.1,0.1-0.1c-0.1,0-0.3,0.1-0.4,0.2c0,0-0.1,0-0.1,0.1c0,0-0.2-0.2-0.3-0.2
	c-0.1-0.1-0.1-0.2-0.1-0.4c0-0.5-0.4-1.4-0.8-2.1c-0.4-0.5-0.5-1.3-0.5-1.6s0.5-0.6,1-0.8c0.3-0.1,0.5-0.3,0.9-0.5c0,0,0,0,0.1,0
	c0.2-0.1,1.2-0.5,1.3-0.6c0.1,0,0.7-0.4,0.9-0.5c0.1-0.1,0.2-0.1,0.3-0.2c0.4-0.2,0.6-0.3,0.7-0.3h0.2c0,0,0.1,0,0.2-0.1
	c0.3-0.1,0.4-0.2,0.5-0.3l0.2-0.2c0.3-0.5,0.5-0.8,0.5-1.1c0.1-0.5,0-0.8-0.2-1.3c0-0.1,0-0.1-0.1-0.2c0-0.1-0.1-0.1-0.1-0.3
	c-0.3-0.5-0.4-0.6-0.3-1c0-0.5,0.2-0.7,0.6-1c0.3-0.2,0.9-0.2,1.5,0c0.1,0.1,0.3,0.2,0.4,0.5c0,0.3,0,0.3,0.1,0.6c0,0.1,0,0.2,0,0.2
	c-0.1,0.3,0,0.5,0.2,0.8c-0.1,0.1-0.1,0.3-0.1,0.4C19,3.7,19,3.8,19,3.8c0,0,0-0.1,0.1-0.1c-0.1,0.1-0.1,0.2,0,0.4
	c0,0-0.1-0.1-0.1-0.2V3.8c-0.1,0.1-0.1,0.2-0.1,0.4c-0.1,0-0.1,0-0.1,0c-0.4-0.1-0.8,0.2-0.9,0.5c0,0.1,0,0.2-0.1,0.5
	c0,0.1,0,0.3-0.1,0.4l-0.1,0.4L18,6.1c0.5,0.3,0.9,0.5,0.9,0.8c0,0.5,0.2,0.9,0.5,1.4c0,0,0.2,0.3,0.2,0.4c0.4,0.6,0.6,1.4,0.7,1.5
	c0.1,0.4,0.4,0.5,0.7,0.5c0.2,0,0.3,0,0.5-0.1s1.2-0.3,1.6-0.3c0.4-0.1,0.5-0.3,0.8-0.6c0.1-0.1,0.2-0.5,0.2-0.5
	c0.1-0.1,0.2-0.3,0.3-0.4l-0.1-0.1c0.1,0,0.1,0,0.2,0l0,0l0,0c0,0,0.1,0.1,0.2,0.1C24.8,9,24.9,9.1,25,9.1c0-0.1,0-0.2,0-0.3
	c0,0.2,0.1,0.3,0.2,0.3c-0.1,0-0.1,0-0.1-0.1c0,0.1,0.1,0.3,0.2,0.4l0,0l0,0c0,0,0,0.1,0.1,0.1c0,0-0.2,0.2-0.2,0.3
	C25.1,9.9,25,9.9,24.8,10c-0.5,0.1-1.4,0.4-2.1,0.9c-0.5,0.4-1.4,0.5-1.6,0.5c-0.3-0.1-0.6-0.4-0.9-0.9c-0.1-0.2-0.2-0.3-0.4-0.6
	l-0.6-0.7L18.7,10c-0.1,0.2-0.2,0.4-0.3,0.5c-0.3,0.5-0.5,1.3-0.5,1.8c0,0.1-0.1,0.6-0.1,0.6c-0.1,0.5-0.1,0.7-0.2,0.8
	c-0.2,0.3-0.3,0.8-0.4,1.2c0,0-0.1,0.3-0.3,0.5l-0.2,0.3l0.2,0.3c0.1,0.1,0.1,0.1,0.2,0.2c0.2,0.2,0.2,0.3,0.5,0.7
	c0.5,0.7,1.6,2.2,2.8,3.8c0.5,0.5,0.7,1.6,0.8,2.5c0.1,0.6,1.2,3.5,1.8,5.1c0.4,0.8,1.6,0.8,3,0.5c0.1,0,0.3-0.1,0.4-0.1
	c0.3-0.1,0.5-0.1,0.5-0.2C27.1,28.6,26.9,28.9,26.7,29L26.7,29z"/>
</svg>
