<?xml version="1.0" encoding="utf-8"?>
<!-- Generator: Adobe Illustrator 23.0.3, SVG Export Plug-In . SVG Version: 6.00 Build 0)  -->
<svg version="1.1" id="Layer_1" xmlns="http://www.w3.org/2000/svg" xmlns:xlink="http://www.w3.org/1999/xlink" x="0px" y="0px"
	 viewBox="0 0 28 32" style="enable-background:new 0 0 28 32;" xml:space="preserve">
<title>vitality</title>
<g>
	<path d="M20.3,2H7.8C3.5,2,0,5.5,0,9.8v12.5C0,26.6,3.5,30,7.8,30h12.5c4.3,0,7.7-3.5,7.7-7.7V9.8C28,5.5,24.5,2,20.3,2z
		 M25.5,22.3c0,2.9-2.3,5.2-5.2,5.2H7.8c-2.9,0-5.2-2.3-5.2-5.2V9.8c0-2.9,2.3-5.2,5.2-5.2h12.5c2.9,0,5.2,2.3,5.2,5.2L25.5,22.3
		L25.5,22.3z"/>
	<path d="M14,8.8c-4,0-7.2,3.2-7.2,7.2c0,4,3.2,7.2,7.2,7.2s7.2-3.2,7.2-7.2C21.2,12.1,18,8.8,14,8.8z M14,20.8
		c-2.6,0-4.7-2.1-4.7-4.7c0-2.6,2.1-4.7,4.7-4.7s4.7,2.1,4.7,4.7C18.7,18.6,16.6,20.8,14,20.8z"/>
	<path d="M21.5,6.7c-0.5,0-0.9,0.2-1.3,0.5c-0.3,0.3-0.5,0.8-0.5,1.3c0,0.5,0.2,0.9,0.5,1.3c0.3,0.3,0.8,0.5,1.3,0.5
		c0.5,0,0.9-0.2,1.3-0.5c0.3-0.3,0.5-0.8,0.5-1.3c0-0.5-0.2-0.9-0.5-1.3C22.5,6.9,22,6.7,21.5,6.7z"/>
</g>
</svg>
