<?xml version="1.0" encoding="utf-8"?>
<!-- Generator: Adobe Illustrator 23.0.3, SVG Export Plug-In . SVG Version: 6.00 Build 0)  -->
<svg version="1.1" id="Layer_1" xmlns="http://www.w3.org/2000/svg" xmlns:xlink="http://www.w3.org/1999/xlink" x="0px" y="0px"
	 viewBox="0 0 28 32" style="enable-background:new 0 0 28 32;" xml:space="preserve">
<title>vitality</title>
<g>
	<path d="M26.1,9c-1.2-2.1-2.9-3.8-5.1-5.1C18.9,2.7,16.5,2,14,2c-2.5,0-4.9,0.6-7,1.9C4.8,5.2,3.2,6.9,1.9,9C0.7,11.1,0,13.5,0,16
		c0,2.8,0.8,5.4,2.3,7.7c1.5,2.3,3.6,4,6.1,5.1c0-1.3,0-2.4,0.2-3.2l1.8-7.6c-0.3-0.6-0.5-1.3-0.5-2.2c0-1,0.3-1.9,0.8-2.6
		c0.5-0.7,1.2-1,1.9-1c0.6,0,1.1,0.2,1.4,0.6c0.3,0.4,0.5,0.9,0.5,1.5c0,0.4-0.1,0.8-0.2,1.4c-0.1,0.5-0.3,1.2-0.5,1.9
		c-0.2,0.7-0.4,1.3-0.5,1.7c-0.2,0.7,0,1.4,0.4,1.9c0.4,0.5,1,0.8,1.8,0.8c1.3,0,2.4-0.7,3.2-2.2c0.8-1.4,1.2-3.2,1.2-5.3
		c0-1.6-0.5-2.9-1.5-3.9c-1-1-2.5-1.5-4.3-1.5c-2,0-3.7,0.7-5,2c-1.3,1.3-1.9,2.9-1.9,4.7c0,1.1,0.3,2,0.9,2.7
		c0.2,0.2,0.3,0.5,0.2,0.8c0,0.1-0.1,0.3-0.1,0.5c-0.1,0.3-0.1,0.5-0.1,0.6c-0.1,0.4-0.3,0.5-0.7,0.4c-0.9-0.4-1.6-1.1-2.1-2
		c-0.5-1-0.7-2.1-0.7-3.3c0-0.8,0.1-1.6,0.4-2.4c0.3-0.8,0.7-1.6,1.2-2.4c0.6-0.8,1.2-1.4,2-2c0.8-0.6,1.7-1,2.8-1.4
		s2.3-0.5,3.6-0.5c1.7,0,3.3,0.4,4.6,1.1c1.4,0.8,2.4,1.8,3.1,3c0.7,1.2,1.1,2.5,1.1,3.9c0,1.8-0.3,3.5-0.9,4.9
		c-0.6,1.5-1.5,2.6-2.7,3.4c-1.2,0.8-2.5,1.2-3.9,1.2c-0.7,0-1.4-0.2-2.1-0.5c-0.6-0.3-1.1-0.8-1.3-1.2c-0.5,2.1-0.9,3.4-1,3.8
		c-0.2,0.9-0.7,1.9-1.4,3c1.3,0.4,2.6,0.6,4,0.6c2.5,0,4.9-0.6,7-1.9c2.1-1.2,3.8-2.9,5.1-5.1c1.2-2.1,1.9-4.5,1.9-7
		C27.9,13.5,27.3,11.1,26.1,9z"/>
</g>
</svg>
