<?xml version="1.0" encoding="utf-8"?>
<!-- Generator: Adobe Illustrator 23.0.3, SVG Export Plug-In . SVG Version: 6.00 Build 0)  -->
<svg version="1.1" id="Layer_1" xmlns="http://www.w3.org/2000/svg" xmlns:xlink="http://www.w3.org/1999/xlink" x="0px" y="0px"
	 viewBox="0 0 32 32" style="enable-background:new 0 0 32 32;" xml:space="preserve">
<style type="text/css">
	.st0{fill:#084B8D;}
</style>
<title>healthcare-fund</title>
<path class="st0" d="M27.9,29.3H3.4c-2.2,0-3.4-3.2-3.4-4.9v-19c0-1,0.4-2.8,3.5-2.8h6.1c1.4,0,3.3,0.6,4.4,1.9l0.7,0.7
	c0.6,0.7,1.6,1.4,1.9,1.4h11.3c1.2,0,4.2,0,4.2,2.6v15.1C32.1,26.3,30.1,29.3,27.9,29.3L27.9,29.3z M3.5,4.9c-1.3,0-1.3,0.2-1.3,0.5
	v19c0,1.2,0.9,2.6,1.3,2.6h24.5c0.5,0,1.9-1.7,1.9-2.6V9.3C29.9,9.1,29.4,9,28.1,9H16.6c-1.7,0-3.5-2-3.5-2.1l-0.7-0.7
	c-0.6-0.6-1.8-1.2-2.8-1.2C9.6,4.9,3.5,4.9,3.5,4.9z"/>
<path class="st0" d="M21,19.2h-3.5v3.6h-2.9v-3.6h-3.5v-2.1h3.5v-3.6h2.9v3.6H21V19.2z"/>
</svg>
