<?xml version="1.0" encoding="utf-8"?>
<!-- Generator: Adobe Illustrator 23.0.3, SVG Export Plug-In . SVG Version: 6.00 Build 0)  -->
<svg version="1.1" id="Layer_1" xmlns="http://www.w3.org/2000/svg" xmlns:xlink="http://www.w3.org/1999/xlink" x="0px" y="0px"
	 viewBox="0 0 32 32" style="enable-background:new 0 0 32 32;" xml:space="preserve">
<style type="text/css">
	.st0{fill:#084B8D;}
</style>
<title>healthy-company</title>
<path class="st0" d="M20.2,14.1c-2.9,0-5.3-2.4-5.3-5.3s2.4-5.3,5.3-5.3s5.3,2.4,5.3,5.3C25.4,11.8,23.1,14.1,20.2,14.1z M20.2,5.9
	c-1.7,0-3,1.3-3,3.1c0,1.7,1.3,3.1,3,3.1s3-1.3,3-3.1S21.9,5.9,20.2,5.9z"/>
<path class="st0" d="M9,12.7c-2.5,0-4.4-2.1-4.4-4.5s2-4.5,4.4-4.5s4.4,2.1,4.4,4.5S11.5,12.7,9,12.7z M9,5.9c-1.2,0-2.3,1-2.3,2.3
	s1,2.3,2.3,2.3s2.3-1,2.3-2.3S10.2,5.9,9,5.9z"/>
<path class="st0" d="M1.1,24.1c-0.6,0-1.1-0.5-1.1-1.1c0-5.2,4.6-9.4,10.4-9.4c1.7,0,3.2,0.3,4.6,1c0.5,0.2,0.8,0.9,0.5,1.4
	c-0.2,0.5-0.9,0.8-1.4,0.5c-1.1-0.5-2.4-0.8-3.7-0.8c-4.5,0-8.2,3.2-8.2,7.2C2.3,23.5,1.8,24.1,1.1,24.1L1.1,24.1z"/>
<path class="st0" d="M31.1,28.6c-0.6,0-1.1-0.5-1.1-1.1c0-5.3-4.2-9.5-9.4-9.5s-9.4,4.2-9.4,9.5c0,0.6-0.5,1.1-1.1,1.1
	s-1.1-0.5-1.1-1.1c0-6.5,5.2-11.7,11.6-11.7S32,21.1,32,27.5C32.2,28.1,31.7,28.6,31.1,28.6z"/>
</svg>
