<?xml version="1.0" encoding="utf-8"?>
<!-- Generator: Adobe Illustrator 23.0.3, SVG Export Plug-In . SVG Version: 6.00 Build 0)  -->
<svg version="1.1" id="Layer_1" xmlns="http://www.w3.org/2000/svg" xmlns:xlink="http://www.w3.org/1999/xlink" x="0px" y="0px"
	 viewBox="0 0 28 32" style="enable-background:new 0 0 28 32;" xml:space="preserve">
<style type="text/css">
	.st0{fill:#084B8D;}
</style>
<title>vitality</title>
<g>
	<path id="LinkedIn" class="st0" d="M27.9,19v10.3h-6v-9.6c0-2.4-0.9-4.1-3-4.1c-1.6,0-2.6,1.1-3.1,2.2c-0.2,0.4-0.2,0.9-0.2,1.5v10
		h-6c0,0,0.1-16.3,0-17.9h6v2.5c0,0,0,0,0,0.1l0,0v-0.1c0.8-1.2,2.2-3,5.4-3C25,10.9,27.9,13.5,27.9,19z M3.5,2.7
		c-2,0-3.4,1.3-3.4,3.1c0,1.7,1.3,3.1,3.3,3.1l0,0c2.1,0,3.4-1.4,3.4-3.1C6.8,4,5.5,2.7,3.5,2.7z M0.4,29.3h6V11.4h-6
		C0.4,11.4,0.4,29.3,0.4,29.3z"/>
</g>
</svg>
