<?xml version="1.0" encoding="utf-8"?>
<!-- Generator: Adobe Illustrator 23.0.3, SVG Export Plug-In . SVG Version: 6.00 Build 0)  -->
<svg version="1.1" id="Layer_1" xmlns="http://www.w3.org/2000/svg" xmlns:xlink="http://www.w3.org/1999/xlink" x="0px" y="0px"
	 viewBox="0 0 33 32" style="enable-background:new 0 0 33 32;" xml:space="preserve">
<style type="text/css">
	.st0{fill:#084B8D;}
</style>
<title>medical-aid</title>
<path class="st0" d="M17.7,18.3v-2.9h-2.3v2.9h-2.9v2.3h2.9v2.9h2.3v-2.9h2.9v-2.3H17.7z"/>
<path class="st0" d="M7.3,7.3L7.3,7.3L7.3,7.3z"/>
<path class="st0" d="M26.9,7.3h-0.3V4.9c0-2.6-2.2-4.9-4.6-4.9H11.8C9.4,0,7.3,2.3,7.3,4.9v2.4h-1C2.7,7.3,0,10.1,0,13.6v12
	c0,3.1,2.2,5.6,5.3,5.9c0.1,0,0.2,0,0.3,0c0.2,0,0.5,0,0.7,0H27l0.5-0.1c0.1,0,0.2,0,0.3,0c0,0,0,0,0.1,0H28c3.1-0.5,5.3-3,5.3-5.9
	V13.6C33.1,10.1,30.4,7.3,26.9,7.3z M9.6,4.9c0-1.4,1-2.6,2.2-2.6h10.2c1.1,0,2.3,1.4,2.3,2.6v2.4H9.6L9.6,4.9L9.6,4.9z M30.9,25.6
	c0,1.7-1,3.1-2.5,3.5l-0.9,0.2c-0.1,0-0.1,0-0.3,0c0,0-0.1,0-0.2,0H6.3c-0.1,0-0.2,0-0.3,0H5.7c-2.1-0.2-3.4-1.8-3.4-3.8v-12
	c0-2.2,1.7-4,4-4h20.6c2.2,0,4,1.7,4,4L30.9,25.6L30.9,25.6z"/>
</svg>
